<?xml version="1.0" encoding="utf-8"?>
<!-- Generator: Adobe Illustrator 23.0.3, SVG Export Plug-In . SVG Version: 6.00 Build 0)  -->
<svg version="1.1" id="Calque_1" xmlns="http://www.w3.org/2000/svg" xmlns:xlink="http://www.w3.org/1999/xlink" x="0px" y="0px"
	 viewBox="0 0 300 200" style="enable-background:new 0 0 300 200;" xml:space="preserve">
<style type="text/css">
	.st0{fill:#FFFFFF;}
	.st1{fill:none;stroke:#000000;stroke-miterlimit:10;}
	.st2{fill:#E72828;}
	.st3{fill:#B92020;}
	.st4{fill:#BA2020;}
</style>
<g>
	<g>
		<path d="M175.4,155.4c-10.3,0-20.6,0-31.1,0c0-0.5,0-1,0-1.6c0.1-6.9,0.2-13.7,0.2-20.6c0-0.7,0.3-1.6-1-1.6
			c-0.2,0-0.4-0.7-0.4-1.1c-0.2-2.7-0.3-5.4-0.4-8.1c0-0.8,0.3-1.9-1.2-1.6c0-2,0.1-3.7,0-5.5c-0.1-1.4,0.4-2.8-0.8-4.2
			c-0.7-0.8-0.4-2.5-0.5-3.5c-2.9,0-5.8,0-8.8,0c0,4.3,0,8.3,0,12.5c-1.6-0.5-3.3,0.5-4.6-0.9c-0.5,0.9-1.3,1.1-4.3,0.7
			c0-4,0-8,0-12.3c-3.3,0-6.4,0-9.7,0c0,0.5,0.1,1.1,0,1.8c-0.2,0.9-0.5,1.7-0.7,2.6c-0.1,0.4-0.1,0.8-0.1,1.2
			c0,2.2,0.1,4.3,0.1,6.5c0,0.5-0.4,1-0.6,1.5c-0.2,0.4-0.4,0.8-0.4,1.2c0,2.6,0,5.1-0.1,7.7c0,0.5-0.5,1-0.7,1.5
			c-0.1,0.3-0.3,0.7-0.3,1.1c0,1.4,0,2.8,0,4.2c0,2.3-0.4,2.7-2.8,2c0-0.9,0-1.7,0-2.6c0-0.7,0.4-1.6-0.9-1.9
			c-0.2,0-0.3-0.7-0.3-1.1c-0.2-1.1-0.3-2.3-0.6-3.4c-0.1-0.6-0.5-1.1-0.8-1.6c-0.6-0.8-1.3-1.6-1.8-2.2c-0.5,0.7-1.3,1.7-2,2.8
			c-0.6,1.1-1.1,2.3-1.6,3.5c-0.1-0.1-0.2-0.1-0.4-0.2c-0.4-2.3-0.8-4.7-1.3-7c-1.1-4.2-2.7-8.1-5.7-11.3c-0.5-0.5-0.5-1.3-0.8-2.1
			c0.2,1.3-0.7,1.9-1.5,2.7c-1.4,1.4-2.7,3-3.5,4.8c-1.8,3.6-2.5,7.5-2.8,11.5c0,0.4-0.3,0.8-0.5,1.3c-0.4-0.3-0.7-0.6-1.1-1
			c-0.8-0.9-1.5-1.8-2.2-2.8c-0.3-0.4-0.6-0.9-0.8-1.1c-0.4,0.4-0.9,0.7-1.3,1.2c-0.6,0.6-1.3,1.2-1.6,1.9c-0.7,2.3-1.1,4.7-1.6,7
			c-0.1,0.5-0.1,1.1-0.1,1.7c-1.2,0.1-2.3,0.2-3.6,0.4c0,4.3,0,8.4,0,12.6c-10.2,0-20.3,0-30.6,0c0-0.6,0-1.1,0-1.6
			c0-3.6,0-7.1,0.1-10.7c0-3.3,1.5-5.4,4.6-6.1c1.7-0.4,3.7-0.4,5.5,0c3,0.6,4.2,2.2,4.3,5.3c0.1,3.3,0,6.6,0,10.1
			c4.2,0,8.1,0,12.3,0c0-0.5,0-1,0-1.5c0-4.9,0-9.8,0.1-14.7c0.1-1.8,0.6-3.7,0.9-5.7c-2.2-0.6-0.4-2.8-1.1-4.4
			c-12.5,0-25.1,0-37.7,0c-0.6,1.5,0.7,3.6-1.6,4.5c1.8,2.6,1.5,5.4,1.4,8.3c-0.6,0-1.1,0.1-1.6,0.1c-4,0-8,0-12,0
			c-0.5,0-1.2,0.1-1.5,0.4c-1.1,1.5-2.4,2.6-4.8,1.9c-0.1,4.9-0.3,9.6-0.4,14.4c-1-0.1-1.8-0.1-2.6-0.2c1.9-0.7,1.6-2.3,1.6-3.7
			c0.1-3.3,0.2-6.5,0.2-9.8c0-1.3,0.5-2,1.9-1.7c1.2,0.2,2-0.2,2.7-1.2c0.7-1.1,1.7-1.4,3-1.4c3.7,0.1,7.3,0.1,11,0.2
			c1.3,0,1.7-0.5,1.5-1.6c-0.3-1.6-0.8-3.2-1.2-4.9c-0.1-0.4-0.2-1.2,0-1.3c1.5-1,1.1-2.5,1.1-4c0-0.3,0-0.7,0.1-1.2
			c13.4,0,26.8,0,40.2,0c0,1,0,1.9,0,2.7c-0.1,0.9,0,1.6,1,2c0.3,0.1,0.6,1.3,0.4,1.5c-1.3,1.4-1.3,3.1-1.3,4.8c0,5.8,0,11.6,0,17.6
			c-4.9,0-9.6,0-14.5,0c0-0.6,0-1.2,0-1.7c-0.1-3.5-0.1-6.9-0.2-10.4c0-1.3-0.7-2.2-1.8-2.8c-2.7-1.4-5.4-1.5-8,0
			c-1.5,0.8-2.3,2.1-2.3,3.9c0.1,3.8,0,7.6,0,11.6c9.4,0,18.6,0,28.1,0c0-4.2,0-8.3,0-12.6c1.4-0.1,2.4-0.2,3.7-0.2
			c0.2-1.3,0.2-2.5,0.5-3.7c0.6-2.7,1.1-5.3,3.6-7.2c0.7-0.5,0.6-2.2,0.9-3.4c0.2-0.6,0.5-1.1,1-1.5c1.1,2.4,0.1,5.4,3.2,6.7
			c0.4-1.8,0.7-3.7,1.2-5.5c1.1-4,2.5-7.7,6.1-10.3c0.3-0.2,0.5-0.8,0.5-1.3c0.2-2.5,0.3-5.1,0.5-7.7c0-0.4,0.3-0.8,0.5-1.1
			c0.3,0.4,0.7,0.7,0.8,1.1c0.3,2.6,0.5,5.2,0.8,7.8c0.1,0.5,0.1,1.1,0.4,1.4c3.9,4.2,5.5,9.4,6.6,14.9c0,0.1,0.1,0.2,0.1,0.3
			c1.2-1,2.1-2.1,2.3-3.7c0.1-0.8,0.3-1.7,0.6-2.5c0.1-0.3,0.4-0.6,0.7-0.8c0.3,0.3,0.6,0.6,0.7,0.9c0.2,0.4,0.1,0.9,0.2,1.3
			c0.2,1.5,0.4,2.8,1.6,4c0.8,0.7,1,2.2,1.3,3.4c0.2,0.6,0.2,1.3,0.3,2c1.2-0.1,1.3,0.6,1.3,1.6c-0.1,1,0,2,0,3c0.1,0,0.3,0,0.4,0
			c0-0.5,0.1-0.9,0.1-1.4c0-1.7-0.5-3.5,0.2-4.9c1.6-3.5,0.5-7,0.9-10.5c0-0.1,0-0.4,0-0.4c1.9-1.5,0.6-3.5,0.8-5.2
			c0.1-1.1-0.3-2.5,0.1-3.4c1-2.3,0.7-4.7,0.8-7c0-0.2,0.4-0.6,0.6-0.7c0.2,0,0.7,0.3,0.8,0.5c0.4,1.6,1.5,1.7,2.9,1.7
			c2.5-0.1,5.1,0,7.7,0c0,4.4,0,8.4,0,12.4c0.6,0,1.1,0,1.8,0c0.3-2,0.6-4,0.9-5.9c0.1-0.3,0.3-0.6,0.5-1c0.2,0.3,0.6,0.6,0.7,1
			c0.2,1.3,0.3,2.7,0.4,4c0.2,2,0.2,2,2.4,1.8c0-4,0-7.9,0-12.3c2.3,0,4.5-0.1,6.7,0c1.4,0.1,2.3-0.3,2.6-1.8
			c0.1-0.4,0.6-0.7,0.9-1.1c0.2,0.4,0.6,0.9,0.6,1.3c0.2,1.2,0.2,2.4,0.3,3.6c0.1,0.9-0.2,1.9,0.9,2.5c0.2,0.1,0.2,0.7,0.2,1.1
			c0,1.8-0.1,3.6,0,5.4c0,0.8-0.6,2,1,2.2c0.1,0,0.2,0.7,0.2,1.1c0.2,3.2,0.3,6.3,0.5,9.5c0.4,0.2,0.9,0.3,1.2,0.5
			c0,7.8,0,15.6,0,23.6c0.6,0,1.3,0,1.9,0c8.7,0,17.5,0,26.2,0c0.6,0,1.2,0.3,1.9,0.4C175.4,155.1,175.4,155.2,175.4,155.4z"/>
		<path d="M252.2,135.9c-1.6,1.5-3.2,2.8-4.8,4.3c-2.2-3.1-4.4-6.2-6.6-9.2c-0.1,0-0.2,0.1-0.3,0.1c0.6,3,1.2,6.1,1.8,9.3
			c4.2,0,8.3,0,12.7,0c0-0.5,0-1.1,0-1.6c0-6.7,0-13.3,0-20c0-2.2,0-2.2,2.1-2.2c1,0,2,0,3,0c0-1.8-0.2-3.4,0-4.9
			c0.5-3.3,2.2-5.8,4.9-7.8c0.5-0.4,0.8-1.1,1.1-1.6c0.7-1.3,1.5-2.6,2-3.9c0.4-1.2,0.6-2.5,0.7-3.8c0.1-1.3,0-2.5,0.2-3.8
			c1.3,0.9,0.9,2.1,0.9,3.3c-0.1,1.8-0.1,3.6,1.3,5c0.2,0.2,0.4,0.4,0.5,0.7c0.9,2.7,2.8,4.6,4.4,6.8c2.1,2.8,2.9,6.1,2.2,9.9
			c1.4,0.1,2.7,0.3,4,0.3c1,0,1.3,0.4,1.4,1.4c0,3.8,0.2,7.6,0.3,11.4c0,0.5,0.1,1,0.1,1.5c0.5,0,1,0.1,1.4,0.1
			c2.3-0.2,4.4,0.4,6.3,1.8c0.8,0.6,2.1,0.9,3.2,1c1.5,0.2,3.1,0,4.9,0c-0.5,1.4,0.5,3-1.5,3.4c-0.2,0-0.2,0.7-0.2,1.1
			c0,1.8,0,3.5-0.1,5.3c0,0.7-0.3,1.5-0.5,2.2c-0.1,0-0.3,0-0.4-0.1c0-3.2,0-6.3,0-9.4c0.5-0.2,1-0.5,1.5-0.7c0-0.2-0.1-0.3-0.1-0.5
			c-0.8,0-1.5-0.2-2.3-0.1c-2.2,0.1-4.3-0.3-6-1.8c-1.6-1.4-3.5-1-5.3-1c-2,0-2,0-2-2c0-4.1,0-8.2,0-12.4c-2.3-0.2-4.2-0.4-6.2-0.5
			c1.6-4.5,0-9.8-3.6-12.7c-0.5-0.4-0.8-1-1-1.6c-0.5-1.1-0.9-2.3-1.5-3.2c-0.8-1.1-1.6-1-2.4,0.1c-0.2,0.3-0.4,0.6-0.4,0.9
			c-0.2,2.3-1.6,3.6-3.2,5c-3,2.7-3.9,6.2-3.1,10.2c0.1,0.4,0.2,0.9,0.3,1.5c-1.9,0-3.6,0-5.5,0c0,8,0,15.9,0,23.9
			c-0.5,0.1-0.9,0.1-1.2,0.1c-4.1,0-8.2-0.1-12.3-0.1c-0.7,0-1.3,0-1.4-0.9c-0.8-4.2-1.6-8.4-2.5-12.6c0.8-0.8,1.2-0.2,1.7,0.4
			c2,2.9,4.1,5.7,6.1,8.6c0.3,0.4,0.6,0.9,1.1,1.5c0.9-0.8,1.8-1.6,3.2-2.9c-0.5-0.3-1.1-0.4-1.4-0.7c-3.1-2.7-6.1-5.5-9.2-8.2
			c-0.2-0.2-0.5-0.4-0.7-0.6c-0.7-1-1.6-2-1.9-3.1c-0.5-2.2,1.8-1,2.6-1.9c-0.4-0.6-0.9-1.1-1.4-1.8c4.7-4.1,9.4-8.2,14.3-12.4
			c-1-0.9-1.8-1.7-2.9-2.7c-4,4.8-8,9.4-12,14.2c-0.9-0.9-1.7-1.7-2.8-2.9c-0.8,1.1-1.4,2-2.2,3.1c-3.8-5-7.3-9.6-10.9-14.3
			c-1,0.9-1.9,1.7-2.9,2.6c4.4,4.1,8.6,8,13,12.1c-0.5,0.6-1,1.3-1.6,2c0.9,0.1,1.7,0.2,2.6,0.3c0.2,1.9-0.3,3.6-1.7,4.9
			c-2.9,2.8-5.8,5.5-8.7,8.3c-0.4,0.4-0.9,0.6-1.5,1c1.3,0.9,2.2,1.5,3.3,2.2c2-3,4-6,6-8.9c0.2-0.3,0.3-0.6,0.6-0.9
			c0.2-0.2,0.6-0.4,0.8-0.3c0.2,0.1,0.4,0.6,0.4,0.8c-1,4-2,8-3.1,11.9c-0.1,0.3-0.7,0.7-1.1,0.7c-3.7,0-7.3-0.1-11,0
			c-1.2,0-1.4-0.5-1.4-1.6c0.1-4.8,0.1-9.5,0.1-14.3c0-0.4,0-0.9,0-1.4c-0.1,0.1-0.3,0.1-0.3,0.1c0.2,2.5-1.2,3.7-3.6,3.8
			c-1.7,0.1-2.1,1-2.1,2.7c0.1,4.3,0,8.6,0,12.9c-0.1,0.1-0.2,0.1-0.4,0.2c-0.2-0.4-0.7-0.8-0.7-1.2c-0.1-4.7-0.1-9.4,0-14.1
			c0-0.4,0.5-0.8,0.9-1.1c0.2-0.2,0.5-0.2,0.7-0.2c2.5-0.3,4.3-1.2,4.2-4.2c0-0.4,1.3-0.8,2.3-1.4c0,6.5,0,12.4,0,18.5
			c1.3,0,2.7,0,4,0c2,0,4,0,6,0.1c0.8,0,1.2-0.1,1.4-1c0.6-2.4,1.2-4.8,1.6-7.4c-1.7,2.5-3.4,5.1-5.2,7.7c-1.7-1.2-3.3-2.3-5.3-3.6
			c0.7-0.5,1.2-0.8,1.7-1.2c3.1-2.9,6.2-5.8,9.3-8.8c0.8-0.8,1.3-1.9,2-3.2c-1.6-0.2-2.8-0.3-4.2-0.5c0.8-1,1.5-1.9,2.3-2.9
			c-4.4-4.1-8.7-8.1-13.1-12.2c1.6-1.4,3.1-2.8,4.8-4.3c3.5,4.7,7,9.2,10.6,13.9c0.8-0.8,1.6-1.5,2.5-2.3c0.9,0.8,1.7,1.6,2.6,2.4
			c4-4.7,7.9-9.3,11.9-14.1c1.6,1.4,3.1,2.8,4.8,4.3c-4.9,4.2-9.6,8.3-14.5,12.5c0.8,0.9,1.6,1.8,2.5,2.9c-1.6,0.1-2.9,0.3-4.6,0.4
			c0.9,1.2,1.5,2.1,2.3,2.8C244.4,128.9,248.2,132.3,252.2,135.9z"/>
		<path d="M197.6,119.2c-8.7,0-17.2,0-26,0c1.1-5.8,2.2-11.3,3.3-16.9c3.1,0,6.2,0,9.2,0c0.6,3.8,1.1,7.6,1.7,11.3
			c0.5,2.6,0,2.1,2.6,2.1c1.8,0,3.7,0,5.8,0c-0.7-1.9-1.3-3.7-1.9-5.5c-0.9-2.8-1.8-5.6-2.8-8.4c-0.7-2.1-1.2-4.2,0.6-5.9
			c-0.1-0.3-0.1-0.4-0.2-0.5c-2.4-1-2.7-3.2-2.9-5.4c-1.3-15-2.6-30-3.9-45.1c-0.4-5-0.7-10-1.1-15c1.1-0.5,1.1,0.2,1.2,0.9
			c0.4,4.8,0.7,9.6,1.1,14.4c1.1,13.7,2.2,27.4,3.4,41.1c0.1,0.8,0.2,1.6,0.3,2.4c0.3,2.6,0.4,5.4,3.6,6.3c0,0.4,0,0.6-0.1,0.7
			c-1.8,2.1-1.5,4.3-0.6,6.7c1.6,4.2,3,8.5,4.4,12.8c0.2,0.5,0.3,1,0.5,1.7c-3.4,0-6.6,0-9.8,0c-0.3,0-0.8-0.7-0.9-1.1
			c-0.7-4-1.4-8.1-2.2-12.4c-2,0-4.3,0-6.6,0c-0.2,0-0.7,0.3-0.7,0.6c-0.9,4.6-1.8,9.2-2.7,14.1c0.6,0,1.1,0,1.5,0
			c6.2-0.1,12.3-0.1,18.5-0.1c1.5,0,3.1,0.1,4.6,0.3c0.4,0.1,1.1,0.6,1.2,1c0.2,6.6,2.6,12.6,4.9,18.6c0.7,1.8,1.5,3.5,2.2,5.3
			c0.2,0.4,0,1-0.3,1.5C201.8,136.5,198.3,128.5,197.6,119.2z"/>
		<path d="M192,167.4c1.7,0,3.3,0,5,0.1c0.3,0,0.5,0.7,0.7,1.1c7-2.9,13.7-3,19,3.6c3.1,3.9,3.2,9.8,0.2,14.1
			c-4.9,7.1-11.7,7.8-19.4,4.9c0,1.5-0.1,2.9,0,4.3c0.1,1.2,1,1.5,2,1.5c0.8,0,1.5,0.1,2.3,0.1c0,0.2,0,0.4,0,0.6
			c-3.2,0-6.4,0-9.6,0c0-0.2,0-0.3-0.1-0.5c0.8-0.1,1.7-0.2,2.7-0.3c0-0.5,0.1-1.1,0.1-1.6c0-7.8,0-15.5,0-23.3c0-0.5-0.1-1,0-1.5
			c0-1.4-0.5-2.2-2-2.3c-0.3,0-0.6-0.2-0.9-0.3C192,167.8,192,167.6,192,167.4z M197.5,179.7c0,2.6,0,5.2,0,7.8
			c0,0.5,0.3,1.3,0.8,1.6c4.1,2.7,8.4,3.3,12.7,0.8c4.4-2.5,6-6.5,5.4-11.5c-1-8.6-10.6-13.3-17.7-8.6c-0.9,0.6-1.3,1.2-1.3,2.3
			C197.5,174.7,197.5,177.2,197.5,179.7z"/>
		<path d="M233.9,185c0.5-3.5-0.4-5.9-2.7-6.5c-4.8-1.1-6.3,2.1-7.6,5.8c0-2.8,0-5.5,0-8.3c0.6,0.3,0.6,0.3,0.8,3.7
			c0.4-0.3,0.7-0.6,1-0.9c2.2-1.8,4.7-2.2,7.3-1.2c2.5,1,3.4,3.2,3.4,5.8c0,3.5,0,6.9,0.1,10.4c0,2.4,0.1,2.4,2.3,3.2
			c0.2,0.1,0.3,0.3,0.4,0.5c-2.6,0.7-4.6,0.4-5.2-0.8c-1.8,1.2-3.8,1.8-6,1.4c-5-0.8-7.2-6.3-4.1-10.4
			C225.9,184.8,229.1,183.9,233.9,185z M234.1,191.3c0-0.8-0.1-1.6,0-2.4c0.2-1.3-0.5-2-1.5-2.5c-2.2-1.1-4.3-1.2-6.4,0.3
			c-1.8,1.4-2.5,3.2-2,5.4c0.5,2.5,2,4.1,4.5,4.7c3,0.7,5.3-1.1,5.3-4.1C234.1,192.3,234.1,191.8,234.1,191.3z"/>
		<path d="M279.6,178c0-0.4,0.1-1.1,0.2-1.8c0.8,0.6,1,6.7,0.1,8.3c-0.1-0.6-0.2-1.3-0.3-1.9c-0.4-2.9-2.2-4.5-4.8-4.2
			c-1.3,0.2-2.3,0.7-2.7,2.1c-0.4,1.4,0.2,2.5,1.4,3.2c1.5,0.7,3,1.3,4.5,2c1,0.5,2.1,0.9,3.1,1.6c2.8,1.9,3.3,5.5,1.2,8.2
			c-3.3,4.3-11.5,4.4-14.8,0.2c-1.6-2-1.7-4.7-0.1-6.5c1.7-1.9,4.7-2.3,6.7-0.9c1.5,1,2,3,0.8,4.1c-0.3,0.3-1,0.3-1.5,0.5
			c-0.1-0.4-0.2-0.8-0.2-1.2c0.2-1.1-0.3-1.7-1.2-2.2c-1.2-0.7-2.8-0.5-3.8,0.5c-1,1-1.3,2.8-0.5,4.2c0.9,1.6,2.3,2.6,4.1,3.1
			c2.4,0.7,4.8,0.6,7-0.6c1.7-0.9,2.5-2.4,2.5-4.3c0-1.9-1.1-3.1-2.7-3.9c-1.3-0.6-2.7-1.1-4-1.7c-0.7-0.3-1.4-0.6-2.1-0.9
			c-2-1.1-2.8-2.7-2.5-4.7c0.3-1.8,1.9-3.4,4-3.5C276,177.4,277.8,177.8,279.6,178z"/>
		<path d="M168.5,96.9c0,0,0.6,0.1,0.7,0.3c0.2,0.9,0.6,1.9,0.4,2.7c-1.4,4.9-3,9.8-4.5,14.6c-0.4,1.3-0.8,2.7-1.3,4.1
			c-0.9-0.1-1.8-0.1-2.6-0.2c-0.1,0.2-0.2,0.2-0.2,0.3c1,7.6-1.5,14.5-4.7,21.1c-1.9,4-4.1,7.8-6.3,11.8c1,0,2,0.1,3,0.1
			c1,0,2,0,3,0.1c1.8,0.3,2.8-0.2,3.6-2.1c1.1-2.9,3.5-4.9,6.2-6.3c2.7-1.4,8.4-2.1,7.7-1.9c-3.9,1-7.6,2.5-10.4,5.4
			c-1.4,1.4-2.2,3.4-3.3,5.1c-0.2,0.4-0.6,1-0.9,1c-3.7,0-7.4-0.2-11.2-0.3c1.7-2.9,3.4-5.6,4.9-8.3c3.1-5.7,6-11.6,6.9-18.2
			c0.4-2.9,0.1-5.9,0.1-9c0.8,0,1.6,0.1,2.4,0c0.4-0.1,1-0.4,1.1-0.8c1.7-4.9,3.3-9.9,4.8-14.9C168.5,100.2,168.4,98.7,168.5,96.9z"
			/>
		<path d="M241.6,197.3c0.7-0.1,1.4-0.2,2.2-0.4c0-5.3,0-10.6,0-16c-0.2-0.2-0.4-0.3-0.6-0.5c-0.4,0.7-0.7,1.5-1.1,2.2
			c-0.1-0.1-0.2-0.3-0.4-0.4c0-1.2,4.2-5.9,5.3-5.9c-0.4,0.5-0.8,1-1,1.5c-0.2,0.5-0.1,1.1-0.2,2c2.2-2.3,4.6-3.4,7.5-2.1
			c0.1-0.6,0.2-1.1,0.3-1.7c0.8,0.6,1.1,7.2,0.2,9c-0.2-1.2-0.3-1.9-0.4-2.7c-0.3-2.7-1.4-4-3.4-3.9c-2.2,0.1-4.2,2.2-4.2,4.5
			c0,3.5,0,7,0,10.5c0,2.7,0.1,2.7,2.7,3.5c0.1,0,0.2,0.3,0.5,0.6c-2.6,0-5.1,0-7.5,0C241.7,197.6,241.6,197.4,241.6,197.3z"/>
		<path d="M170.2,92.7c0.3-0.9,0.7-1.7,0.8-2.6c1.5-13.5,2.9-27.1,4.3-40.6c0.4-4.1,0.7-8.2,1.1-12.3c0-0.4,0.4-0.8,0.6-1.1
			c0.2,0.1,0.4,0.2,0.5,0.2c-0.2,2.1-0.3,4.2-0.5,6.2c-1.8,16.4-3.6,32.9-5.4,49.3C171.6,92.7,171.6,93.8,170.2,92.7L170.2,92.7z"/>
		<path d="M297,201.1c0-17.2,0-34.3,0-51.5c0.2,0,0.3-0.1,0.5-0.1c0.2,0.7,0.6,1.4,0.6,2.1c0,16.2-0.1,32.3-0.1,48.5
			c0,0.4-0.4,0.8-0.6,1.3C297.3,201.2,297.1,201.1,297,201.1z"/>
		<path d="M1.8,120.5c-0.3,1.2-0.7,2.5-0.7,3.7c0.1,5.9,0.3,11.8-0.9,17.7c-0.1,0.5-0.5,0.9-0.8,1.3c-0.1-0.5-0.4-1-0.3-1.4
			c1-5.5,1.2-11.1,0.8-16.6c-0.1-1.6,0.1-3.1,0.8-4.6c0.5-1,0.4-2.2,0.6-3.5c0.6,0,1.3,0,1.7,0c2.4,6.3,1.2,12.8,1.6,19.1
			c0.1,2,0.1,4,0.1,6c0,0.4-0.3,0.7-0.4,1.1c-0.2-0.4-0.7-0.7-0.7-1.1c-0.1-6-0.1-11.9-0.3-17.9c0-1.3-0.5-2.6-0.7-3.8
			C2.4,120.5,2.1,120.5,1.8,120.5z"/>
		<path d="M264.1,197.8c-2.5,0-4.8,0-7.2,0c0-0.2-0.1-0.3-0.1-0.5c0.7-0.2,1.5-0.3,2.3-0.5c0-5.3,0-10.7,0-16.5
			c-0.6,1-1.1,1.7-1.7,2.5c-0.6-1.3,3.2-6.1,4.9-6.8c-1.9,2.8-0.9,5.7-1.1,8.5c-0.1,2.9,0,5.8,0,8.7c0,2.8,0,2.8,2.5,3.8
			C264,197.2,264,197.4,264.1,197.8z"/>
		<path d="M175.3,17.8c0-1.9,0.7-3.3,2.2-4.1c0.9-0.5,1.1-1.1,1.1-2c0.1-3.5,0.4-6.9,0.6-10.4c0-0.4,0.1-0.8,0.2-1.2
			c0.1-0.3,0.5-0.5,0.7-0.7c0.2,0.3,0.5,0.6,0.5,0.9c0.1,1.9,0.2,3.8,0.3,5.7c0.1,2,0.2,3.9,0.4,5.8c0.1,0.6,0.5,1.4,1.1,1.7
			c1.5,1,2.5,2.3,2.6,4.3c-0.4-0.3-0.8-0.7-1.1-1c-0.9-0.9-1.9-1.7-2.8-2.6c-0.3-0.3-0.7-0.7-0.8-1.1c-0.2-1-0.3-2.1-0.5-3.1
			c0,0.4-0.1,0.8-0.1,1.1c0,1.5,0.1,3-1.9,3.7c-0.6,0.2-1,1.2-1.5,1.8C176.1,17.1,175.7,17.5,175.3,17.8z"/>
		<path d="M209.2,148.9c0-1.1,0-2.2,0-3.3c0.3,0,0.5-0.1,0.6,0c0.8,0.5,0.9,3.9,0.1,4.3c-0.3,0.2-0.7,0.2-1,0.2
			c-1.4-0.1-2.5-2.5-1.6-3.9c0.5,1,1,1.9,1.5,2.8C209,148.9,209.1,148.9,209.2,148.9z"/>
		<path d="M194,154.6c1.5,0,3,0,4.9,0c-0.4-1-0.8-1.7-1.1-2.4c1.4-0.2,1.9,0.4,2.5,3.4c-2.2-0.1-4.2-0.2-6.3-0.3
			C194,155,194,154.8,194,154.6z"/>
		<path d="M177.9,24.2c0.2,0.8,0.5,1.5,0.5,2.3c-0.1,1.9-0.2,3.8-0.4,5.6c0,0.3-0.4,0.6-0.6,1c-0.2-0.3-0.5-0.7-0.5-1
			c0.2-2.6,0.4-5.2,0.7-7.8C177.6,24.3,177.7,24.2,177.9,24.2z"/>
		<path d="M261.7,169.5c-0.6,0.4-1.3,1.2-1.9,1.2c-0.5,0-1.3-0.8-1.5-1.4c-0.2-1,0.6-1.7,1.5-1.6c0.7,0.1,1.3,0.8,1.9,1.2
			C261.7,169.1,261.7,169.3,261.7,169.5z"/>
		<path d="M184.2,154.5c-0.7,1.2-0.7,1.2-8.5,0.8c0.4-0.4,0.6-0.8,0.8-0.8C179,154.4,181.5,154.5,184.2,154.5z"/>
		<path d="M3.9,145c0.5,0.5,0.9,0.8,1,1.1c0.1,1,0.1,2.1,0.1,3.1c0,0.2-0.4,0.4-0.6,0.7c-0.2-0.2-0.4-0.4-0.4-0.6
			C3.8,148,3.9,146.8,3.9,145z"/>
		<path d="M191.8,155c-0.3,0.2-0.7,0.5-1,0.5c-0.9,0.1-1.9,0.1-2.8,0c-0.3,0-0.5-0.3-0.8-0.4c0.2-0.2,0.4-0.6,0.6-0.6
			c1.3-0.1,2.6,0,3.9,0C191.7,154.7,191.8,154.8,191.8,155z"/>
		<path d="M188.7,142.9c-1.2-0.5-2.1-0.9-3.1-1.2c0-0.2-0.1-0.3-0.1-0.5c0.4-0.1,0.9-0.4,1.2-0.3
			C187.5,141.4,188.9,141.2,188.7,142.9z"/>
		<path d="M183,24.7c0.3,0.1,0.5,0.2,0.5,0.3c-0.1,0.7-0.2,1.5-0.4,2.2c-0.1,0.3-0.4,0.5-0.7,0.6c-0.1,0-0.4-0.1-0.4-0.2
			c0.1-0.6,0.2-1.2,0.3-1.8C182.5,25.4,182.8,25.1,183,24.7z"/>
		<path d="M184.6,23.2c-0.2-0.3-0.5-0.7-0.4-0.9c0.4-0.8-0.2-2.1,1.5-2.5c-0.2,1.2-0.4,2.2-0.5,3.3
			C184.9,23.1,184.8,23.2,184.6,23.2z"/>
		<path d="M170.2,92.7c0.9,1.1,0.3,1.9-0.5,2.5c-0.2,0.2-0.7,0.2-1.1,0.3c0-0.1-0.1-0.2-0.1-0.4C169,94.3,169.6,93.5,170.2,92.7
			C170.2,92.7,170.2,92.7,170.2,92.7z"/>
		<path d="M177.3,139.8c1.1,0,2,0,3,0C179.2,141.3,178,141.3,177.3,139.8z"/>
		<path d="M177.4,33.5c0.1,0.6,0.2,1.2,0.2,1.8c0,0.1-0.5,0.3-0.8,0.4c0-0.7-0.1-1.4-0.1-2C176.9,33.5,177.1,33.5,177.4,33.5z"/>
		<path class="st0" d="M159.1,153.1"/>
		<path class="st1" d="M165.9,143.5c0,0,22-12.5,33,11l-23.2,0.7"/>
		<polyline class="st1" points="3.6,142.2 3.8,152.1 5.8,151.9 		"/>
		<path class="st1" d="M297.2,145.8"/>
		<polyline class="st1" points="297.2,145.8 297.6,155.6 298,200 		"/>
	</g>
	<g>
		<path class="st2" d="M55.3,5.6c0.6,0,1.2,0,1.8,0c0.6,0.3,1.2,0.2,1.9,0.4c1.3,0.3,2,1.2,2.2,2.4c0.2,1.2-0.2,2.4-1.2,2.9
			c-3,1.3-3.4,4.3-4.4,6.9c-0.3,0.9-0.1,1.5,0.7,1.9c0.3,0.1,0.5,0.3,0.7,0.5c1.4,0.9,1.3,0.9,2.2-0.5c0.7-1.1,1.7-1.4,2.8-1.1
			c1.3,0.3,2.6,1.8,2.7,3.1c0.1,1.3-0.4,2.2-1.6,2.6c-0.9,0.3-1,0.7-0.5,1.5c2.2,3.3,1.5,2.9,4.9,1.8c2-0.7,3.7-1.5,4.6-3.7
			c0.4-1.2,1.5-1.6,2.7-1.4c1.2,0.2,2.1,0.8,2.5,2.1c0.2,0.7,0.2,1.5,0.4,2.2c0,0.6,0,1.2,0,1.9c-0.7,2.1-1.4,2.6-3.4,1.9
			c-1.5-0.5-2.8-0.3-4.1,0.3c-0.4,0.2-0.7,0.4-1.1,0.5c-3.2,1.6-3.3,2-2.2,5.6c0.2,0.6,0.4,0.6,1,0.4c2.3-1,3.6,0,3.7,2.5
			c0,0.3,0,0.6,0,0.9c-0.1,2.2-1.5,3.2-3.5,2.5c-0.8-0.3-1.1-0.2-1.3,0.7c-0.5,2.9-0.5,2.9,1.9,4.1c1.9,1,3.8,1.9,6,0.8
			c1.5-0.7,2.5,0.2,3,2.3c0,0.6,0,1.2,0,1.9c-0.3,0.5-0.3,1.2-0.4,1.8c-0.3,1.3-1.1,2-2.4,2.2c-1.2,0.2-2.4-0.2-2.9-1.4
			c-1.2-3.2-4.1-3.4-6.5-4.5c-0.7-0.3-1.1,0-1.5,0.6c-0.2,0.3-0.4,0.7-0.6,1.1c-1,1.5-1,1.5,0.4,2.5c0.1,0.1,0.2,0.1,0.2,0.2
			c0.8,0.8,1,1.8,0.6,2.8c-0.6,1.4-1.6,2.5-3.2,2.7c-1.1,0.1-2-0.4-2.3-1.5c-0.3-1.3-0.8-0.9-1.5-0.4c-2.6,1.9-2.5,1.8-1.4,5
			c0.7,1.9,1.5,3.5,3.4,4.3c1.1,0.5,1.7,1.7,1.4,3c-0.3,1.3-1,2.2-2.3,2.5c-0.6,0.1-1.2,0.1-1.7,0.4c-0.6,0-1.2,0-1.8,0
			c-2.1-0.7-2.6-1.6-1.9-3.8c0.5-1.4,0.3-2.7-0.3-4c-0.1-0.2-0.2-0.4-0.3-0.6c-1.7-3.6-1.7-3.6-5.3-2.7c-0.6,0.2-0.8,0.4-0.5,1.1
			c0.9,2.1,0,3.6-2.2,3.8c-0.4,0-0.9,0-1.3,0c-1.9-0.2-2.8-1.6-2.2-3.5c0.4-1.1,0.1-1.3-0.9-1.5c-2.9-0.4-2.8-0.4-4.2,2.3
			c-0.9,1.8-1.3,3.4-0.6,5.5c0.6,1.8,0,2.7-2,3.4c-0.7,0-1.4,0-2.1,0c-0.4-0.3-0.9-0.3-1.4-0.4c-1.2-0.3-2.3-1.4-2.4-2.6
			c-0.2-1.4,0.5-2.5,1.6-3c3-1.2,3-4.3,4-6.8c0.2-0.5-0.1-0.9-0.5-1.1c-0.4-0.2-0.7-0.5-1.1-0.7c-0.5-0.3-0.9-0.9-1.5-0.9
			c-0.6,0.1-0.4,0.9-0.8,1.4c-0.7,0.8-1.4,1.2-2.5,0.9c-1.4-0.4-2.4-1.4-2.8-2.9c-0.4-1.3,0.1-2.5,1.3-2.8c1.2-0.3,1-0.9,0.4-1.6
			c-0.4-0.5-0.7-1-1-1.5c-0.9-1.5-1-1.5-2.6-0.8c-0.8,0.3-1.6,0.6-2.4,0.9c-1.2,0.4-2.1,1.2-2.7,2.4c-0.9,1.9-2,2.5-3.5,2.2
			c-1.4-0.3-2.2-1.4-2.5-3.3c-0.1-0.3,0.1-0.7-0.2-1c0-0.6,0-1.2,0-1.9c0.7-2.1,1.4-2.6,3.4-1.8c1.5,0.6,2.9,0.4,4.3-0.3
			c0.3-0.2,0.6-0.3,0.9-0.5c2.8-1.4,3-2.1,2-5.1c-0.2-0.6-0.5-0.5-0.9-0.3c-1.8,0.7-2.9,0.2-3.5-1.6c-0.6-1.8,0.1-4,1.4-4.6
			c0.7-0.3,1.4-0.2,2,0.1c0.6,0.4,0.9,0.3,1-0.5c0-0.2,0,0,0-0.2c0-1.2,1.3-2.6,0.2-3.5c-1.8-1.3-3.7-2.6-6.1-2.3
			c-0.1,0-0.2,0-0.3,0.1c-3.7,0.9-4.7-0.1-4.2-4.1c0.1-0.5,0.1-0.9,0.2-1.4c0.4-1.3,1.2-2.3,2.5-2.5c1.2-0.2,2.5,0.3,3,1.7
			c1.2,3.1,4.1,3.1,6.4,4.1c0.5,0.2,0.9-0.1,1.1-0.5c0.2-0.4,0.5-0.8,0.7-1.2c1-1.5,1-1.4-0.4-2.3c-0.2-0.1-0.3-0.2-0.5-0.4
			c-0.7-0.8-0.8-1.8-0.4-2.7c0.5-1.4,2-2.5,3.2-2.6c1.1,0,1.9,0.5,2.2,1.5c0.3,1.2,0.8,1.1,1.6,0.5c0.2-0.1,0.3-0.3,0.5-0.4
			c2.4-1.7,2.3-1.7,1.3-4.7c-0.7-2-1.5-3.7-3.6-4.6c-1.1-0.5-1.7-1.7-1.4-3c0.3-1.3,1-2.2,2.3-2.5c0.6-0.1,1.2-0.1,1.7-0.4
			c0.6,0,1.2,0,1.8,0c2.1,0.7,2.6,1.6,1.9,3.8c-0.5,1.4-0.3,2.7,0.3,4c0.1,0.3,0.3,0.6,0.4,0.8c1.6,3.3,1.6,3.3,5.1,2.7
			c0.8-0.1,1-0.3,0.6-1.2c-0.9-1.7-0.3-3.1,1.5-3.7c1-0.3,1.9-0.3,2.9,0c1.5,0.6,2.1,2.2,1.3,3.5c-0.7,1.1-0.3,1.2,0.7,1.4
			c3.3,0.6,2.7,1.1,4.4-2.4c0.9-1.8,1.5-3.6,0.8-5.7C52.6,7.1,53.3,6.2,55.3,5.6z"/>
		<path class="st3" d="M44.4,35.9c2.3,0,4.3,2,4.3,4.3c0,2.4-2,4.4-4.4,4.4c-2.3,0-4.2-2-4.2-4.4C40.2,37.9,42.1,35.9,44.4,35.9z"/>
		<path class="st3" d="M39.2,28.9c0,1.5-1,2.6-2.3,2.6c-1.1,0-2.4-1.3-2.4-2.5c0-1.3,1.3-2.7,2.4-2.6C38.2,26.4,39.2,27.5,39.2,28.9
			z"/>
		<path class="st3" d="M39.7,56.3c-1,0-2.3-1.2-2.4-2.3c-0.1-1.1,1.2-2.5,2.3-2.6c1.3,0,2.4,1,2.4,2.4C41.9,55.1,41,56.2,39.7,56.3z
			"/>
		<path class="st3" d="M58.8,35.2c-0.1,1.2-0.7,1.9-1.9,1.9c-1.2,0-1.8-0.7-1.9-1.9c-0.1-1,1-2.1,2-2.1C58.1,33.3,58.7,34,58.8,35.2
			z"/>
		<path class="st3" d="M33.6,41.8c0,1.5-0.7,2.4-1.8,2.3c-1-0.1-1.8-0.6-1.8-1.8c0-1.2,0.5-2,1.7-2.1C33,40.2,33.5,41,33.6,41.8z"/>
		<path class="st4" d="M54.4,48.6c0.1-1,0.6-1.8,1.6-1.8c1.1,0,1.8,0.6,1.8,1.8c0.1,1-0.9,2-1.9,1.9C54.9,50.3,54.4,49.6,54.4,48.6z
			"/>
		<path class="st3" d="M48.2,56.8c0-0.7,0.4-1.4,1.2-1.3c0.8,0,1.5,0.4,1.4,1.4c0,0.9-0.6,1.4-1.4,1.4
			C48.5,58.3,48.1,57.7,48.2,56.8z"/>
		<path class="st3" d="M47.4,24.2c0.7,0,1,0.3,1,1c0,0.6-0.4,1.1-1,1.1c-0.6-0.1-1-0.5-0.9-1.2C46.5,24.4,46.9,24.2,47.4,24.2z"/>
		<path class="st3" d="M31.4,52.6c-0.6,0-1-0.3-1-0.9c0-0.6,0.4-1.1,1-1.1c0.6,0,1,0.5,1,1.1C32.4,52.3,32,52.6,31.4,52.6z"/>
		<path class="st3" d="M29.1,34.6c0,0.7-0.3,1.1-1,1.2c-0.6,0-1-0.4-1-0.9c0-0.7,0.4-1,1-1.1C28.8,33.8,29.1,34.1,29.1,34.6z"/>
		<path class="st3" d="M56,28.1c-0.4,0-0.7-0.2-0.7-0.7c0-0.4,0.2-0.7,0.6-0.7c0.4,0,0.7,0.2,0.7,0.6C56.7,27.8,56.4,28,56,28.1z"/>
	</g>
</g>
</svg>
